# xmcd
#
# Track frame offsets: 
#        150
#        11495
#        33266
#        47502
#        69062
#        85500
#        98574
#        115152
#        135986
#        150540
#        180703
#        188211
#        196382
#        206740
#        220342
#
# Disc length: 3306 seconds
#
# Revision: 0
# Processed by: cddbd v1.5.2PL0 Copyright (c) Steve Scherf et al.
# Submitted via: ExactAudioCopy v0.99pb5
#
DISCID=b90ce80f
DTITLE=Various Artist - SweetSoulMusic Revenue (Live At Capitol)
DYEAR=2009
DGENRE=Soul
TTITLE0=Sweet Soul Music
TTITLE1=Midnight Train to Georgia
TTITLE2=My Guy
TTITLE3=Georgia
TTITLE4=River Deep Mountain High
TTITLE5=Only You
TTITLE6=Soothe Me
TTITLE7=A Change Is Gonna Come
TTITLE8=Dancing In The Street
TTITLE9=This Is A Man's World
TTITLE10=Get Ready
TTITLE11=Ain't Too Proud To Beg
TTITLE12=My Girl
TTITLE13=Just My Imagination
TTITLE14=Papa Was A Rolling Stone
EXTD=
EXTT0=
EXTT1=
EXTT2=
EXTT3=
EXTT4=
EXTT5=
EXTT6=
EXTT7=
EXTT8=
EXTT9=
EXTT10=
EXTT11=
EXTT12=
EXTT13=
EXTT14=
PLAYORDER=
